<?xml version="1.0" ?><!DOCTYPE svg  PUBLIC '-//W3C//DTD SVG 1.1//EN'  'http://www.w3.org/Graphics/SVG/1.1/DTD/svg11.dtd'><svg enable-background="new 0 0 128 128" height="128px" id="Layer_1" version="1.1" viewBox="0 0 128 128" width="128px" xml:space="preserve" xmlns="http://www.w3.org/2000/svg" xmlns:xlink="http://www.w3.org/1999/xlink"><g><path d="M122.828,26.772l-25.6-25.6C96.479,0.421,95.461,0,94.4,0H39C32.934,0,28,4.926,28,10.981V24H14.999   C8.934,24,4,28.926,4,34.982v82.036C4,123.073,8.934,128,14.999,128h74.003c6.064,0,10.998-4.927,10.998-10.982v-13.019h13.002   c6.064,0,10.998-4.927,10.998-10.983V29.6C124,28.539,123.578,27.522,122.828,26.772z M96.701,11.958l15.24,15.241h-15.24V11.958z    M92,117.018c0,1.645-1.344,2.982-2.998,2.982H14.999c-1.653,0-2.998-1.338-2.998-2.982V34.982C12,33.338,13.345,32,14.999,32H28   v61.016c0,6.057,4.934,10.983,10.998,10.983H92V117.018z M116,93.016c0,1.646-1.346,2.983-2.998,2.983H100h-8H38.999   c-1.653,0-2.998-1.338-2.998-2.983V32v-8V10.981C36,9.337,37.346,8,39,8h49.702v23.199c0,2.209,1.791,4,4,4H116V93.016z" fill="#010101"/><path d="M48,24h28.8c2.209,0,4-1.791,4-4s-1.791-4-4-4H48c-2.209,0-4,1.791-4,4S45.792,24,48,24z" fill="#010101"/><path d="M48,40h28.8c2.209,0,4-1.791,4-4s-1.791-4-4-4H48c-2.209,0-4,1.791-4,4S45.792,40,48,40z" fill="#010101"/><path d="M44,52c0,2.209,1.791,4,4,4h56c2.209,0,4-1.791,4-4s-1.791-4-4-4H48C45.792,48,44,49.791,44,52z" fill="#010101"/><path d="M92,64H48c-2.209,0-4,1.791-4,4s1.791,4,4,4h44c2.209,0,4-1.791,4-4S94.209,64,92,64z" fill="#010101"/></g></svg>