<?xml version="1.0" ?><svg data-name="Layer 1" id="Layer_1" viewBox="0 0 24 24" xmlns="http://www.w3.org/2000/svg"><defs><style>.cls-1{fill:none;}</style></defs><title/><rect class="cls-1" height="2" width="6" x="9" y="3"/><path class="cls-1" d="M18.06,21L18.94,7H5.06L5.94,21H18.06ZM13,10a1,1,0,0,1,2,0v8a1,1,0,0,1-2,0V10ZM9,10a1,1,0,0,1,2,0v8a1,1,0,0,1-2,0V10Z"/><path d="M2,7H3.06L4,22.06A1,1,0,0,0,5,23H19a1,1,0,0,0,1-.94L20.94,7H22a1,1,0,0,0,0-2H17V3a2,2,0,0,0-2-2H9A2,2,0,0,0,7,3V5H2A1,1,0,0,0,2,7ZM9,3h6V5H9V3ZM8,7H18.94L18.06,21H5.94L5.06,7H8Z"/><path d="M10,19a1,1,0,0,0,1-1V10a1,1,0,0,0-2,0v8A1,1,0,0,0,10,19Z"/><path d="M14,19a1,1,0,0,0,1-1V10a1,1,0,0,0-2,0v8A1,1,0,0,0,14,19Z"/></svg>