<?xml version="1.0" ?><svg data-name="Layer 1" id="Layer_1" viewBox="0 0 24 24" xmlns="http://www.w3.org/2000/svg"><defs><style>.cls-1{fill:none;}</style></defs><title/><polygon class="cls-1" points="8.65 17.08 6.92 15.35 6.36 17.64 8.65 17.08"/><rect class="cls-1" height="4" transform="translate(-3.73 12.51) rotate(-45)" width="11.42" x="7.53" y="8.76"/><polygon class="cls-1" points="21.51 5.32 21.51 5.32 21.51 5.32 18.68 2.49 17.28 3.9 20.1 6.72 21.51 5.32"/><path d="M23,11a1,1,0,0,0-1,1v9.5a0.5,0.5,0,0,1-.5.5H2.5A0.5,0.5,0,0,1,2,21.5V2.5A0.5,0.5,0,0,1,2.5,2H12a1,1,0,0,0,0-2H2.5A2.5,2.5,0,0,0,0,2.5v19A2.5,2.5,0,0,0,2.5,24h19A2.5,2.5,0,0,0,24,21.5V12A1,1,0,0,0,23,11Z"/><path d="M5.66,12.68a1,1,0,0,0-.19.29l0,0.08a1,1,0,0,0,0,.1L4,18.76A1,1,0,0,0,5.24,20l5.61-1.37,0.09,0,0.09,0a1,1,0,0,0,.29-0.19h0L22.92,6.73a2,2,0,0,0,0-2.83L20.1,1.08a2,2,0,0,0-2.83,0L5.66,12.68h0Zm0.7,5,0.56-2.29,1.73,1.73ZM18.68,2.49l2.83,2.83h0l-1.4,1.4L17.28,3.89ZM15.86,5.31l2.83,2.83-8.08,8.08L7.78,13.39Z"/></svg>