<?xml version="1.0" ?><svg height="24px" id="Layer_1" style="enable-background:new 0 0 24 24;" version="1.1" viewBox="0 0 24 24" width="24px" xml:space="preserve" xmlns="http://www.w3.org/2000/svg" xmlns:xlink="http://www.w3.org/1999/xlink"><circle cx="12" cy="5" r="3"/><path d="M15.2195435,8.7910156C15.1365967,8.8613281,15.0565186,8.9349976,14.9691772,9H15v2.0255737  C16.2069702,11.939209,17,13.3731079,17,15c0,2.7568359-2.2431641,5-5,5s-5-2.2431641-5-5  c0-1.6268921,0.7930298-3.060791,2-3.9744263V9h0.0308228C8.9434814,8.9349976,8.8634033,8.8613281,8.7804565,8.7910156  C6.5377808,9.9588623,5,12.3013306,5,15c0,3.8598633,3.140625,7,7,7s7-3.1401367,7-7  C19,12.3013306,17.4622192,9.9588623,15.2195435,8.7910156z"/><g><path d="M12,16h-0.0000019c-0.5522842,0-0.999999-0.4477148-0.999999-0.999999V6.999999   C10.999999,6.4477148,11.4477139,6,11.9999981,6H12c0.5522842,0,0.999999,0.4477148,0.999999,0.999999v8.0000019   C12.999999,15.5522852,12.5522842,16,12,16z"/></g><g><circle cx="12" cy="15" r="2"/></g></svg>