<?xml version="1.0" ?><svg height="32px" id="Layer_1" style="enable-background:new 0 0 32 32;" version="1.1" viewBox="0 0 32 32" width="32px" xml:space="preserve" xmlns="http://www.w3.org/2000/svg" xmlns:xlink="http://www.w3.org/1999/xlink"><path d="M30.882,14L28,11.103C27.196,10.308,26.734,10,26,10c-1.165,0-2,0.938-2,2v2h-6V8h2c1.063,0,2-0.835,2-2  c0-0.734-0.308-1.196-1.103-2L18,1.118C17.357,0.468,16.859,0,16,0s-1.357,0.468-2,1.118L11.103,4C10.308,4.804,10,5.266,10,6  c0,1.165,0.938,2,2,2h2v6H8v-2c0-1.063-0.835-2-2-2c-0.734,0-1.196,0.308-2,1.103L1.118,14C0.468,14.643,0,15.141,0,16  s0.468,1.357,1.118,2L4,20.897C4.804,21.692,5.266,22,6,22c1.165,0,2-0.938,2-2v-2h6v6h-2c-1.063,0-2,0.835-2,2  c0,0.734,0.308,1.196,1.103,2L14,30.882C14.643,31.532,15.141,32,16,32s1.357-0.468,2-1.118L20.897,28  C21.692,27.196,22,26.734,22,26c0-1.165-0.938-2-2-2h-2v-6h6v2c0,1.063,0.835,2,2,2c0.734,0,1.196-0.308,2-1.103L30.882,18  C31.532,17.357,32,16.859,32,16S31.532,14.643,30.882,14z"/></svg>